<?xml version="1.0" standalone="no"?>
<!DOCTYPE svg PUBLIC "-//W3C//DTD SVG 20010904//EN"
 "http://www.w3.org/TR/2001/REC-SVG-20010904/DTD/svg10.dtd">
<svg version="1.0" xmlns="http://www.w3.org/2000/svg"
 width="450.000000pt" height="450.000000pt" viewBox="0 0 450.000000 450.000000"
 preserveAspectRatio="xMidYMid meet">
<metadata>
Created by potrace 1.14, written by Peter Selinger 2001-2017
</metadata>
<g transform="translate(0.000000,450.000000) scale(0.100000,-0.100000)"
fill="#000000" stroke="none">
<path d="M2142 4078 c-4 -3 -36 -9 -72 -12 -36 -3 -81 -9 -100 -14 -19 -4 -42
-8 -50 -7 -8 0 -17 -3 -20 -7 -3 -3 -17 -8 -30 -10 -14 -2 -31 -7 -37 -11 -7
-5 -17 -5 -23 -2 -5 3 -10 1 -10 -6 0 -6 -8 -9 -20 -6 -11 3 -18 1 -14 -4 4
-8 -17 -14 -38 -10 -5 0 -8 -4 -8 -10 0 -6 -7 -9 -15 -5 -8 3 -15 2 -15 -2 0
-9 -100 -57 -112 -54 -5 1 -8 -3 -8 -10 0 -6 -3 -9 -6 -5 -3 3 -16 -3 -27 -14
-12 -11 -28 -17 -36 -14 -9 3 -12 3 -9 -1 6 -5 -54 -54 -67 -54 -3 0 -14 -9
-25 -20 -12 -12 -26 -18 -32 -14 -7 4 -8 3 -4 -4 4 -7 3 -12 -2 -12 -4 0 -19
-10 -32 -22 -14 -13 -28 -22 -33 -20 -5 1 -6 -2 -3 -7 3 -5 -7 -17 -22 -27
-34 -22 -44 -32 -66 -66 -10 -16 -23 -25 -30 -21 -6 3 -8 3 -4 -2 4 -4 -3 -18
-17 -30 -13 -13 -21 -25 -18 -28 3 -3 -4 -12 -16 -19 -12 -7 -21 -18 -21 -24
0 -7 -7 -15 -16 -18 -8 -3 -13 -10 -10 -14 3 -5 -4 -18 -14 -30 -11 -12 -20
-26 -20 -32 0 -6 -5 -8 -10 -5 -6 4 -9 3 -8 -2 4 -16 -14 -53 -23 -48 -5 3 -6
-1 -3 -9 3 -9 1 -16 -5 -16 -6 0 -11 -7 -11 -15 0 -8 -5 -15 -12 -15 -6 0 -8
-3 -5 -7 4 -3 2 -12 -4 -20 -6 -7 -9 -13 -5 -13 3 0 -3 -16 -14 -35 -11 -20
-20 -42 -20 -50 0 -8 -5 -15 -11 -15 -5 0 -7 -4 -4 -10 3 -5 3 -16 -2 -22 -4
-7 -8 -19 -9 -26 -2 -8 -6 -21 -10 -30 -4 -9 -9 -28 -11 -42 -2 -14 -8 -26
-13 -28 -4 -2 -6 -12 -3 -22 3 -11 1 -20 -3 -20 -5 0 -9 -10 -10 -22 -1 -13
-4 -45 -7 -73 -16 -127 -18 -164 -16 -215 1 -30 2 -79 3 -107 1 -29 4 -53 7
-53 4 0 7 -10 7 -22 0 -33 8 -77 25 -136 9 -29 13 -52 10 -52 -3 0 0 -7 7 -15
6 -8 9 -19 5 -25 -3 -5 -1 -10 5 -10 7 0 10 -6 7 -14 -3 -8 -2 -16 3 -18 4 -2
10 -12 12 -23 1 -11 7 -23 12 -26 5 -4 9 -18 9 -33 0 -14 3 -23 7 -21 11 7 22
-24 13 -37 -3 -7 -1 -8 5 -4 11 6 16 -6 13 -26 0 -5 2 -8 7 -8 4 0 14 -15 21
-32 8 -18 21 -39 28 -46 7 -8 11 -17 8 -22 -3 -4 2 -11 11 -14 9 -4 14 -9 11
-12 -3 -3 2 -14 11 -24 29 -32 43 -50 39 -50 -3 0 11 -16 29 -36 19 -20 31
-41 27 -47 -3 -7 -3 -9 2 -5 11 11 36 -12 28 -26 -3 -6 -3 -8 1 -4 10 9 62
-43 58 -57 -2 -5 -1 -7 3 -3 4 4 22 -8 40 -25 43 -42 88 -77 98 -77 5 0 5 -5
2 -10 -4 -6 -3 -9 2 -8 11 4 73 -34 73 -45 0 -4 5 -5 10 -2 6 3 10 1 10 -4 0
-6 7 -11 16 -11 8 0 12 -4 9 -10 -3 -6 1 -7 9 -4 9 3 16 1 16 -5 0 -6 6 -11
14 -11 8 0 21 -7 30 -15 8 -9 17 -16 18 -16 15 1 48 -13 48 -20 0 -5 3 -8 8
-8 19 3 43 -2 39 -8 -3 -5 7 -9 21 -10 15 0 28 -6 30 -12 2 -6 8 -8 13 -5 6 3
15 1 22 -5 7 -5 28 -13 47 -16 18 -3 37 -8 42 -11 5 -3 24 -8 41 -11 18 -3 34
-8 37 -11 3 -4 16 -8 30 -9 14 -1 45 -4 70 -8 84 -11 154 -14 383 -15 180 0
227 -3 227 -13 0 -18 -45 -59 -54 -50 -4 5 -6 1 -4 -7 1 -8 -3 -14 -10 -12 -6
1 -11 -3 -10 -10 2 -7 -4 -12 -12 -13 -8 0 -15 -7 -15 -15 -1 -8 -6 -14 -13
-12 -7 1 -11 -4 -10 -10 2 -7 -3 -12 -10 -10 -6 1 -11 -4 -10 -10 2 -7 -3 -12
-10 -10 -6 1 -11 -4 -10 -10 2 -7 -3 -12 -10 -10 -6 1 -11 -4 -10 -10 2 -7 -3
-12 -10 -10 -6 1 -11 -4 -10 -10 2 -7 -3 -12 -10 -10 -6 1 -11 -4 -10 -10 2
-7 -3 -12 -10 -10 -6 1 -11 -4 -10 -10 2 -7 -3 -12 -10 -10 -6 1 -11 -4 -10
-10 2 -7 -3 -12 -10 -10 -6 1 -11 -4 -10 -10 2 -7 -3 -12 -10 -10 -6 1 -11 -4
-10 -10 2 -7 -3 -12 -10 -10 -6 1 -11 -4 -10 -10 2 -7 -3 -12 -10 -10 -6 1
-11 -4 -10 -10 2 -7 -3 -12 -10 -10 -6 1 -11 -4 -10 -10 2 -7 -3 -12 -9 -11
-7 2 -12 -3 -10 -10 1 -6 -5 -11 -13 -9 -8 2 -12 0 -8 -4 10 -9 -12 -35 -23
-28 -5 3 -8 0 -7 -8 2 -7 -3 -12 -10 -10 -8 1 -11 -2 -8 -7 4 -5 2 -11 -4 -13
-9 -3 122 -145 146 -158 5 -3 8 -9 6 -13 -1 -5 2 -6 7 -3 10 7 33 -18 26 -27
-3 -4 -2 -5 1 -2 8 5 39 -25 39 -39 0 -6 5 -11 10 -11 19 0 35 -16 29 -28 -4
-7 -4 -9 1 -5 8 8 40 -20 40 -36 1 -6 6 -10 12 -9 6 1 18 -8 28 -20 l17 -23
201 201 c110 110 204 199 209 197 5 -1 7 2 4 6 -7 12 28 44 39 35 4 -5 5 -3 2
3 -6 11 32 50 46 46 4 -1 6 4 5 10 -2 7 3 12 10 10 6 -1 11 4 10 10 -2 7 3 12
10 10 8 -1 11 1 8 6 -6 9 35 48 47 44 4 -1 6 4 5 10 -2 7 3 12 10 10 6 -1 11
3 10 10 -2 7 4 12 12 13 8 0 15 7 15 15 1 8 6 14 13 12 7 -1 11 4 10 10 -2 7
3 12 10 10 6 -1 11 4 10 10 -2 7 4 12 12 10 8 -2 12 0 8 4 -10 9 12 35 23 28
5 -3 8 0 7 7 -2 7 4 13 12 14 8 0 15 7 15 15 1 8 7 13 15 12 8 -2 12 0 8 4
-10 9 12 35 23 28 5 -3 8 0 7 7 -2 7 4 13 12 14 8 0 15 7 15 15 1 8 6 14 13
12 7 -1 11 4 10 10 -2 7 3 12 10 10 6 -1 11 4 10 10 -2 7 4 11 12 10 8 -2 12
0 8 4 -10 9 12 35 23 28 5 -3 8 0 7 8 -2 7 3 12 10 10 6 -1 11 4 10 10 -2 7 3
12 10 10 6 -1 11 4 10 10 -2 7 3 12 10 10 6 -1 11 4 10 10 -2 7 3 12 10 10 6
-1 11 3 10 10 -2 7 4 12 12 13 8 0 15 7 15 15 1 8 7 13 15 12 8 -2 12 0 8 4
-10 9 12 35 23 28 5 -3 8 0 7 7 -2 7 2 13 9 14 6 0 14 3 17 6 3 3 -62 74 -145
157 -136 136 -150 154 -138 169 12 14 12 15 0 9 -8 -6 -7 0 4 18 10 14 21 26
26 26 5 0 8 3 7 8 -3 14 14 42 23 36 5 -3 8 -2 7 3 -4 16 14 53 23 48 5 -3 6
2 2 11 -5 13 -3 15 8 9 8 -4 11 -5 7 -1 -4 5 2 25 13 44 10 20 19 43 19 50 0
7 4 10 10 7 6 -4 7 1 3 11 -4 11 -2 15 4 11 6 -4 11 -1 10 6 -1 34 4 48 15 41
7 -4 8 -3 4 4 -4 6 0 25 9 42 8 16 15 31 14 32 -3 9 14 78 20 78 4 0 7 12 8
28 1 27 9 77 19 122 20 84 19 364 -1 412 -4 10 -8 36 -8 58 -1 22 -6 40 -11
40 -4 0 -6 7 -3 15 4 8 2 17 -4 20 -5 4 -7 10 -4 15 3 5 0 12 -6 15 -5 4 -8
13 -5 21 3 8 1 14 -4 14 -6 0 -9 3 -8 8 1 7 -2 17 -33 96 -10 26 -16 53 -12
59 3 5 2 7 -4 4 -9 -6 -46 65 -46 90 0 7 -4 10 -8 7 -8 -4 -25 35 -21 49 1 5
-2 6 -7 3 -8 -5 -25 22 -21 33 1 2 -2 7 -7 10 -20 15 -61 79 -55 86 4 5 2 5
-4 2 -11 -6 -29 19 -26 35 1 5 -1 7 -6 5 -4 -1 -9 3 -11 8 -3 6 -15 18 -28 28
-13 10 -20 23 -17 29 4 6 2 8 -3 5 -13 -8 -36 17 -25 27 4 4 0 6 -8 4 -8 -2
-14 3 -13 10 2 6 -1 12 -7 12 -12 0 -43 24 -86 67 -18 17 -35 29 -38 26 -3 -3
-8 2 -12 11 -3 9 -12 16 -20 16 -8 0 -14 5 -14 10 0 6 -7 10 -15 10 -8 0 -15
5 -15 10 0 6 -6 10 -13 10 -7 0 -23 9 -35 20 -12 11 -24 19 -26 18 -3 -2 -16
6 -28 17 -13 10 -23 18 -23 16 0 -2 -22 6 -50 19 -27 13 -50 21 -50 20 0 -2
-11 3 -25 10 -14 8 -31 15 -39 16 -8 2 -18 9 -22 16 -5 7 -9 10 -9 6 0 -4 -15
-2 -32 3 -48 15 -71 20 -85 21 -7 1 -13 4 -13 8 0 3 -8 6 -17 7 -24 1 -92 12
-123 19 -14 3 -42 5 -62 5 -21 -1 -38 2 -38 7 0 9 -198 10 -208 0z m203 -498
c-2 -4 13 -7 33 -8 45 -2 63 -5 80 -15 6 -5 16 -6 21 -2 5 3 12 1 16 -5 4 -6
11 -8 16 -5 5 4 9 1 9 -6 0 -7 3 -10 6 -6 3 3 26 -3 50 -13 24 -11 44 -16 44
-12 0 4 5 -1 11 -11 6 -9 14 -15 20 -12 5 4 9 1 9 -4 0 -6 7 -11 15 -11 8 0
15 -5 15 -11 0 -5 5 -7 10 -4 6 3 10 3 10 -2 0 -4 12 -17 27 -27 16 -12 23
-14 18 -5 -5 8 8 -3 27 -23 20 -20 38 -34 42 -31 3 4 6 -1 6 -10 0 -9 5 -19
12 -23 7 -5 8 -3 3 6 -5 9 -4 11 3 6 7 -4 12 -12 12 -18 0 -6 19 -28 43 -50
23 -22 35 -37 27 -33 -8 3 -6 -1 5 -10 11 -9 19 -21 17 -26 -1 -5 2 -9 8 -9 5
0 10 -7 10 -16 0 -9 5 -12 12 -8 6 4 8 3 5 -3 -4 -6 7 -31 24 -57 16 -26 25
-44 19 -41 -7 4 -6 -2 2 -14 7 -12 16 -21 20 -21 4 0 5 -6 2 -14 -3 -8 -1 -17
5 -20 6 -4 7 -14 4 -23 -4 -9 -2 -14 3 -10 5 3 10 -2 11 -11 2 -22 7 -44 14
-57 3 -5 4 -20 3 -32 0 -13 2 -23 5 -23 7 0 10 -32 11 -160 1 -116 -3 -180
-12 -180 -3 0 -7 -8 -7 -17 -2 -55 -6 -71 -15 -66 -5 4 -7 -3 -4 -15 4 -12 2
-22 -4 -22 -5 0 -7 -8 -3 -19 3 -10 -1 -24 -10 -31 -8 -7 -13 -16 -10 -20 3
-4 -2 -13 -10 -20 -8 -7 -15 -20 -15 -29 -1 -17 -23 -51 -34 -51 -3 0 -47 41
-95 90 -49 50 -95 90 -101 90 -6 0 -8 4 -5 10 3 5 -8 18 -24 28 -17 10 -28 21
-25 24 3 4 -4 9 -15 13 -12 3 -19 11 -16 16 3 5 -8 17 -24 27 -17 10 -28 22
-24 25 3 4 -1 7 -10 7 -9 0 -19 5 -23 12 -5 7 -2 8 7 3 8 -4 5 1 -6 12 -11 11
-23 19 -26 17 -3 -2 -11 8 -18 23 l-12 26 -139 -141 c-77 -78 -144 -142 -149
-142 -5 0 -18 -15 -30 -32 -11 -18 -21 -30 -21 -26 0 3 -11 -3 -24 -15 l-24
-22 237 -237 c131 -130 235 -240 232 -245 -3 -5 -112 -8 -241 -6 -282 3 -328
7 -392 32 -16 6 -28 8 -28 5 0 -4 -7 -1 -15 6 -8 6 -19 9 -25 5 -5 -3 -10 -1
-10 6 0 7 -3 9 -7 6 -3 -4 -15 1 -26 10 -15 13 -18 14 -12 3 5 -9 0 -8 -13 4
-12 11 -22 15 -22 10 0 -5 -4 -4 -8 1 -4 6 -16 17 -26 25 -18 13 -19 13 -11 0
4 -8 -2 -5 -14 8 -12 12 -27 19 -33 16 -6 -4 -8 -3 -5 3 7 10 -20 28 -36 25
-4 -1 -6 4 -5 10 2 7 -3 12 -10 10 -7 -1 -15 5 -18 13 -4 8 -13 15 -21 15 -8
0 -12 3 -10 8 3 4 -5 16 -16 27 -11 11 -16 14 -12 6 5 -9 4 -12 -3 -7 -7 4
-12 14 -12 22 0 8 -7 17 -15 20 -8 3 -17 14 -20 25 -4 10 -13 19 -21 19 -8 0
-13 3 -13 8 3 20 -2 32 -16 32 -9 0 -12 6 -9 15 4 8 1 15 -5 15 -6 0 -11 7
-11 16 0 8 -4 12 -10 9 -6 -3 -7 1 -4 9 4 9 -1 18 -10 22 -9 3 -14 10 -11 14
3 5 -1 14 -8 22 -8 7 -12 19 -9 27 3 8 0 11 -7 7 -7 -4 -9 -2 -5 7 3 8 0 18
-5 22 -6 3 -9 11 -6 16 4 5 2 9 -4 9 -6 0 -8 7 -5 15 4 8 2 15 -3 15 -5 0 -10
6 -11 13 -3 39 -7 57 -13 57 -3 0 -5 14 -4 30 1 17 -1 30 -5 30 -3 0 -5 15 -4
32 1 18 0 37 -4 43 -9 14 -10 175 -1 175 3 0 6 18 5 40 -1 22 2 40 6 40 5 0 6
11 4 25 -3 14 -1 25 4 25 5 0 9 8 9 18 1 31 7 57 19 78 6 12 8 24 5 28 -3 3
-1 6 6 6 7 0 9 5 6 10 -3 6 -1 10 5 10 7 0 10 7 6 15 -3 8 -1 15 5 15 6 0 7 5
4 10 -3 6 -2 10 3 10 5 0 13 8 16 18 8 22 28 55 46 78 13 16 13 17 0 9 -14 -9
17 28 70 82 14 14 25 28 24 32 0 3 10 16 23 28 12 12 23 20 23 16 0 -3 11 6
25 21 13 14 29 26 34 26 6 0 15 8 20 18 6 9 11 13 11 8 0 -5 9 1 19 13 11 12
21 22 23 21 10 -4 58 21 58 30 0 6 4 9 9 6 4 -3 17 1 27 9 10 8 28 15 40 15
11 0 24 3 28 7 3 4 14 8 24 10 24 5 47 11 50 13 1 2 10 3 20 4 9 1 22 4 27 7
6 4 19 5 29 3 11 -1 26 0 32 4 15 8 204 10 199 2z"/>
</g>
</svg>
